<svg xmlns="http://www.w3.org/2000/svg" width="401.905" height="631.885" viewBox="0 0 401.905 631.885">
  <g id="humaaans_standing-6" data-name="humaaans/standing-6" transform="translate(-55.081 -21.61)">
    <g id="humaaan-3" transform="translate(55.081 28.61)">
      <g id="Bottom_Standing_Sprint" data-name="Bottom/Standing/Sprint" transform="translate(0 220.139)">
        <path id="Leg" d="M157.423,0c-28.981,23.641-17.562,231.4-19.494,234.013Q136.639,235.754,0,263.435l3.962,16.085Q163.842,271.867,173.139,260q13.311-16.99,32.634-190.253Z" transform="matrix(0.574, -0.819, 0.819, 0.574, 49.143, 171.23)" fill="#b28b67" fill-rule="evenodd"/>
        <path id="Pant" d="M0,257.158l6.975,25.908c79.476,9.28,131.838-1.933,150.244-19.462q18.406-17.527,32.72-189.735L138.217,0c-68.992,52.065-27.5,222.99-29.259,226.9S65.3,233.818,0,257.158Z" transform="matrix(0.574, -0.819, 0.819, 0.574, 58.35, 155.589)" fill="#2f3676" fill-rule="evenodd"/>
        <g id="Accessories_Shoe_Flat-Sneaker" data-name="Accessories/Shoe/Flat-Sneaker" transform="matrix(0.94, 0.342, -0.342, 0.94, 259.97, 309.925)">
          <path id="shoe" d="M2.553,9.235Q0,16.051,0,19.435A76.347,76.347,0,0,0,1.371,31.446H87.186q3.345-11.059-3.862-11.94T71.351,17.914L31.465.132A1.521,1.521,0,0,0,29.455.9l-.017.04L26.874,7.161Q20.2,10.274,16.032,10.274q-3.389,0-9.361-2.737h0a3.043,3.043,0,0,0-4.034,1.5Q2.591,9.133,2.553,9.235Z" transform="translate(0 0)" fill="#e4e4e4" fill-rule="evenodd"/>
        </g>
        <path id="Leg-2" data-name="Leg" d="M185.787,0,107.056,188.281,29.676,347.457H47.932L247.673,0Z" transform="translate(-26.031 42.277)" fill="#997659" fill-rule="evenodd"/>
        <g id="Accessories_Shoe_Flat-Sneaker-2" data-name="Accessories/Shoe/Flat-Sneaker" transform="translate(0 373.299)">
          <path id="shoe-2" data-name="shoe" d="M3.637,30.176q-2.553,6.816-2.553,10.2A76.347,76.347,0,0,0,2.454,52.387H88.27q3.345-11.059-3.862-11.94T72.434,38.854L32.548,21.073a1.521,1.521,0,0,0-2.009.77l-.017.04L27.958,28.1q-6.672,3.113-10.843,3.113-3.389,0-9.361-2.737h0a3.043,3.043,0,0,0-4.034,1.5Q3.675,30.074,3.637,30.176Z" transform="translate(-1.083 -20.941)" fill="#e4e4e4" fill-rule="evenodd"/>
        </g>
        <path id="Pant-2" data-name="Pant" d="M34.651,314.39l40.566,7.578C106.583,276.032,237.85,87.681,252.242,0h-90.31C113.869,63.385,64.549,267.694,34.651,314.39Z" transform="translate(-24.018 42.277)" fill="#5c63ab" fill-rule="evenodd"/>
      </g>
      <g id="Head_Front_Wavy" data-name="Head/Front/Wavy" transform="translate(135.128 -7) rotate(14)">
        <g id="Head" transform="translate(57.817 12.064)">
          <path id="Path_5" data-name="Path 5" d="M12.571,52.012C5.56,43.856.815,33.86,1.608,22.659,3.892-9.614,49.218-2.514,58.035,13.774S65.8,71.38,54.409,74.291c-4.544,1.161-14.225-1.683-24.078-7.569l6.184,43.364H0Z" transform="translate(0 0)" fill="#b28b67" fill-rule="evenodd"/>
        </g>
        <path id="hair" d="M119.3,33.152a41.152,41.152,0,0,0-1.958-6.453,30.129,30.129,0,0,0-3.843-7.085A53.734,53.734,0,0,0,103.336,8.686C96.361,3.047,87.481-.206,78.749.85A25.362,25.362,0,0,0,66.417,5.825c-3.291,2.507-6.457,6.2-10.719,6.462-4.637.288-8.888-3.768-12.607-6.274A34.037,34.037,0,0,0,29.537.33,22.643,22.643,0,0,0,7.957,8.416c-6.021,7.1-10.4,17.523-6.444,26.936A12.074,12.074,0,0,0,4.55,39.8C5.795,40.921,7.7,42.114,8.2,43.905c.536,1.9-1.065,4.361-1.686,6.079a17.748,17.748,0,0,0-1.36,7.722c.427,4.394,3.213,8.589,6.155,11.477a20.523,20.523,0,0,0,10.614,5.4,30.045,30.045,0,0,0,7.984.61,25.051,25.051,0,0,0,3.78-.752,3.442,3.442,0,0,1,3.007.725,24.844,24.844,0,0,0,15.9,3.906c4.8-.4,10.328-1.549,14.243-4.807,4.347-3.619,4.26-8.609,3.237-13.941,1.084.532,4.082.862,2.29-1.26-.71-.84-2.051-1.182-2.961-1.677a10.76,10.76,0,0,1-2.96-2.258c-3.325-3.79.033-11.5,4.212-12.776,6.208-1.888,7.6,6.814,12.031,9.065,2.548,1.294,5.214-.475,7.123-2.281a28.239,28.239,0,0,0,5.805-8.888c1.24-2.687,2.393-5.411,3.656-8.084.59-1.248,2.632-4.777,1.607-6.189,4.447-.879,9.4.953,13.229,3.354a9,9,0,0,1,3.634,3.841c.181.376.574,1.492,1.069,1.538.921.085.577-1.03.486-1.56" fill="#191847" fill-rule="evenodd"/>
      </g>
      <g id="Body_Hoodie" data-name="Body/Hoodie" transform="translate(48.828 100.181) rotate(1)">
        <path id="Skin" d="M238.295,0l48.533,35.464q19.744,5.3,32.991,13.192c2.087,1.891,4.608,5.722-4.044,5.059s-17.782-.971-18.976,1.966,4.042,6.447,1.629,10.41q-2.415,3.963-22.8-19.869L227.565,26.39ZM51.952,1.224l31.8.125q-29.448,94.6-31.8,100.383c-3.521,8.683,3.93,21.9,7.115,29.011-10.377,4.621-9.271-12.49-22.361-6.43-11.948,5.531-21.037,15.553-34.841,7.078-1.7-1.042-3.557-4.965.937-8.031C14,115.72,30.13,102.351,32.309,97.95Q36.768,88.95,51.952,1.224Z" transform="translate(0 144.927)" fill="#b28b67" fill-rule="evenodd"/>
        <path id="Coat-Back" d="M0,3.384,12.911,0C65.2,37.547,92.2,116.105,155.526,153.431l-12.8,18.951C38.205,168.689,4,72.978,0,3.384Z" transform="translate(142.602 10.022) rotate(5)" fill="#e87613" fill-rule="evenodd"/>
        <path id="Shirt" d="M0,172.6H116.412c5.319,0,4.318-7.642,3.548-11.5C111.085,116.584,76.442,68.6,76.442,5.24L42.864,0C15.089,44.449,5.485,99.174,0,172.6Z" transform="translate(84.956 5.319)" fill="#dde3e9" fill-rule="evenodd"/>
        <path id="Coat-Front" d="M54.391,49.01Q47.075,46.918,42.8,39.25C30.532,17.213,34.964,5.08,48.08,1.092S72.893,5.319,93.789,5.319a21.132,21.132,0,0,1,3.124.213l10.512.6Q152.665,158.7,132.378,209.709H40.753A310.214,310.214,0,0,1,25.169,241.5H.2Q-3.322,128.1,54.391,49.01Z" transform="translate(31.501)" fill="#ff9b21" fill-rule="evenodd"/>
        <path id="Shade" d="M19.952,0Q24.273,35.988,34,52.237H0Q9.5,30.2,19.952,0Z" transform="translate(72.254 157.472)" fill="rgba(0,0,0,0.1)" fill-rule="evenodd"/>
      </g>
    </g>
  </g>
</svg>
