<svg id="Symbols" xmlns="http://www.w3.org/2000/svg" width="236" height="413" viewBox="0 0 236 413">
  <g id="Scene_Home" data-name="Scene/Home">
    <g id="Big-Leaf-Plant" transform="translate(0 0)">
      <g id="Big-Ass-Leaf" transform="translate(39.912)">
        <path id="leaf" d="M43.095,1.3C48.066.693,53.371.907,57.994,2.87c9.83,4.173,12.624,15.786,12.489,25.224-.145,10.159-2.3,21.256,5.421,29.442,3.551,3.763,7.967,6.643,11.453,10.476A49.517,49.517,0,0,1,96.17,81.824c3.974,9.243,5.924,20.112,2.29,29.808-3.2,8.536-11.249,16.241-9.51,25.948,1.814,10.126,12.024,17.867,18.406,25.41,7.224,8.536,13.875,19.445,14.967,30.637,1.048,10.728-3.622,21.577-10.788,29.686C97.218,239.518,75.7,247.46,54,247.412c-9.214-.021-19.645-.437-27.6-5.388a15.214,15.214,0,0,1-5.215-5.635,18.364,18.364,0,0,0-5.043-5.048,29.933,29.933,0,0,1-9.605-12.827c-7.875-19.493-1.581-43.606,9.442-60.916,2.612-4.1,4.75-8.047,3.481-12.935-1.324-5.1-4.578-9.7-7.457-14.091-2.844-4.335-6.092-8.47-8.315-13.157A29.856,29.856,0,0,1,1.115,101.99c.773-10.094,5.13-19.408,11.3-27.525,5.942-7.819,12.918-15.3,12.934-25.545C25.365,38.061,18.106,28.4,21.2,17.362c1.28-4.571,3.853-9.262,8-12C33.171,2.732,38.42,1.872,43.095,1.3Z" transform="translate(-1 -1)" fill="#dde3e9" fill-rule="evenodd"/>
        <path id="middle-thing" d="M24.405,12.041a2.5,2.5,0,0,1,3.185-1.952c1.793.5,1.758,2.176,1.711,3.668a49.3,49.3,0,0,0,1.621,13.494C33.214,36.5,37.449,45.029,40.8,53.917s4.926,18.049,2.959,27.446C41.909,90.223,39,98.853,37.1,107.724c-1.672,7.819-3.452,16.064-.905,23.863,2.451,7.507,7.868,13.62,11.77,20.4,8.076,14.043,11.659,29.623,12.138,45.655.222,7.444.022,14.958-1.7,22.26-.994,4.2-2.33,9.886-5.933,12.789-1.661,1.34-4.5,1.8-5.9-.18-1.313-1.859-.161-4.737.256-6.719a101.855,101.855,0,0,0,1.736-26.055c-.418-8.437-1.415-16.86-4.07-24.919a84.34,84.34,0,0,0-10.615-20.736c-4.49-6.666-9.159-13.347-11.014-21.246-1.885-8.022-.354-16.185,1.694-24.055,2.166-8.324,5-16.408,7.935-24.506,2.858-7.891,3.871-15.357,2.293-23.615C31.661,44.348,23.318,29.033,24.405,12.041Z" transform="translate(14.441 5.618)" fill="#c5cfd6" fill-rule="evenodd"/>
      </g>
      <g id="Big-Ass-Leaf-2" data-name="Big-Ass-Leaf" transform="translate(55.529 17.353)">
        <path id="leaf-2" data-name="leaf" d="M157.725,2.746c6.151,1.868,12.261,4.881,16.646,9.607,9.324,10.049,6.462,25.236,1.315,36.328-5.54,11.939-13.936,23.94-9.2,37.639,2.175,6.3,5.833,12,7.9,18.347a63.953,63.953,0,0,1,3.035,20.921c-.224,13-3.681,26.867-13.068,36.443-8.265,8.431-21.779,13.356-24.87,25.739-3.224,12.919,4.658,27.386,8.158,39.625,3.961,13.853,6,30.215,1.361,44.021-4.441,13.232-15.653,23.633-28.344,29.495-25.358,11.713-54.8,9.91-80.227-1.437-10.8-4.819-22.811-10.736-29.52-20.728-2.073-3.089-2.686-5.794-3.138-9.376-.405-3.214-1.7-5.759-3.247-8.593A38.591,38.591,0,0,1,.034,240.609C1.1,213.46,21.229,188.217,43.306,173.48c5.231-3.491,9.825-7.046,10.921-13.486,1.144-6.723-.241-13.859-1.3-20.543-1.045-6.606-2.668-13.186-2.8-19.885a38.949,38.949,0,0,1,5.135-19.58c6.242-11.535,16.276-20.284,27.8-26.674,11.1-6.156,23.239-11.374,28.673-23.482C117.5,37,114.091,21.8,123.553,10.35,127.472,5.61,132.967,1.4,139.277.316,145.329-.724,151.94.989,157.725,2.746Z" transform="translate(0 0)" fill="#dde3e9" fill-rule="evenodd"/>
        <path id="middle-thing-2" data-name="middle-thing" d="M121.63,14.407c.873-1.678,3.353-1.807,4.747-.643,1.834,1.533.916,3.5.079,5.241a64.591,64.591,0,0,0-5.171,16.83c-2.166,12.158-1.679,24.473-2.41,36.757s-3.693,23.956-10.914,34.054c-6.808,9.521-14.733,18.214-21.6,27.725-6.05,8.383-12.449,17.214-13.556,27.785-1.066,10.174,2.067,20.254,3.076,30.333,2.089,20.863-1.881,41.191-9.717,60.428-3.639,8.933-7.808,17.726-13.652,25.467-3.364,4.46-7.9,10.488-13.635,12.036-2.644.715-6.209-.226-6.806-3.306-.561-2.891,2.293-5.7,3.818-7.824a133.107,133.107,0,0,0,15.676-29.946c3.93-10.21,7.175-20.707,8.291-31.643,1.035-10.146.174-20.063-1.553-30.119-1.759-10.247-3.719-20.607-1.752-30.932,2-10.488,8.063-19.353,14.579-27.6,6.892-8.722,14.443-16.809,22.113-24.862,7.474-7.847,12.569-16.157,15.05-26.764C113.194,56.468,111.46,33.959,121.63,14.407Z" transform="translate(23.529 9.559)" fill="#c5cfd6" fill-rule="evenodd"/>
      </g>
      <g id="Big-Ass-Leaf-3" data-name="Big-Ass-Leaf" transform="translate(0 97.176)">
        <path id="leaf-3" data-name="leaf" d="M23.09,0C33.318,0,42.31,5.422,48.507,13.115c7.253,9.006,8.718,20,11.664,30.739,1.466,5.342,3.986,10.645,8.4,14.274,4.018,3.3,9.118,3.961,13.928,5.574a32.5,32.5,0,0,1,20.437,20.459c3.739,11.555-.221,23.208.461,34.918.626,10.754,11.229,17.463,19.76,22.619,8.412,5.084,15.99,9.842,18.524,19.746,2.687,10.5,3.588,22.228-.133,32.6-6.2,17.277-24.328,24.884-41.848,26.062-15.9,1.071-35.893-.609-47.834-12.151-7.145-6.906-9.733-16.567-9.412-26.177a79.68,79.68,0,0,1,2.914-17.672c1.085-4.093,2.55-8.169,2.968-12.4,1.11-11.253-9.29-13.414-18.143-16.5-11.249-3.927-19.125-11.343-24.6-21.676-5.1-9.62-7.24-20.42-4.183-31.012A36.2,36.2,0,0,1,9.647,68.032c1.691-1.837,4.074-3.369,5.6-5.3,1.424-1.8,1.114-4.138.623-6.249C13.6,46.733,6.528,38.658,4,28.925,1.716,20.139,3.065,9.2,11.1,3.536A20.978,20.978,0,0,1,23.09,0Z" transform="translate(0 0)" fill="#c5cfd6" fill-rule="evenodd"/>
        <path id="middle-thing-3" data-name="middle-thing" d="M23.792,15.113c10.841,11.548,13.788,27.216,14.652,42.4.484,8.515-.02,17.5,2.482,25.757,2.141,7.069,7.159,12.473,12.332,17.581,10.413,10.281,22.025,20.734,25.071,35.614,1.787,8.732.581,17.752,3.05,26.388a72.579,72.579,0,0,0,11.007,22.19c3.871,5.339,8.915,9.426,13.147,14.4,1.291,1.52,3.141,3.755,2.608,5.9-.623,2.511-3.822,3.306-6.092,2.912-5.291-.92-9.746-5.973-13.205-9.646a83.04,83.04,0,0,1-12.853-17.629,74.1,74.1,0,0,1-8.337-22.908c-1.385-8.377-.7-17.106-3.858-25.145-5.322-13.527-18.229-21.509-27.561-32.052-11.627-13.137-9.893-29.488-8.7-45.647.654-8.881,1.3-18.909-3.183-27.018-1.713-3.1-5.532-5.981-6.269-9.5C17.406,15.489,21.088,12.232,23.792,15.113Z" transform="translate(13.235 10.294)" fill="#afb9c5" fill-rule="evenodd"/>
      </g>
      <path id="Base" d="M28,181c0,66.042,10.778,100.647,67.677,100.647S163.353,247.042,163.353,181Z" transform="translate(20.588 131.353)" fill="#89c5cc" fill-rule="evenodd"/>
    </g>
  </g>
</svg>
